<svg version="1.1" viewBox="0.0 0.0 194.91076115485563 100.0" fill="none" stroke="none" stroke-linecap="square" stroke-miterlimit="10" xmlns:xlink="http://www.w3.org/1999/xlink" xmlns="http://www.w3.org/2000/svg"><clipPath id="p.0"><path d="m0 0l194.91077 0l0 100.0l-194.91077 0l0 -100.0z" clip-rule="nonzero"/></clipPath><g clip-path="url(#p.0)"><path fill="#000000" fill-opacity="0.0" d="m0 0l194.91077 0l0 100.0l-194.91077 0z" fill-rule="evenodd"/><path fill="#ffffff" d="m1.4829396 2.0l96.0 0l0 96.0l-96.0 0z" fill-rule="evenodd"/><path fill="#ffff00" d="m35.36743 77.74l-10.921877 0l0 -42.0625l-13.015624 4.046875l0 -8.875l22.765625 -8.15625l1.171875 0l0 55.046875zm54.849884 -22.734375q0 11.40625 -4.71875 17.453125q-4.71875 6.03125 -13.8125 6.03125q-8.984375 0 -13.75 -5.921875q-4.75 -5.921875 -4.859375 -16.984375l0 -10.125q0 -11.515625 4.765625 -17.484375q4.78125 -5.96875 13.765625 -5.96875q8.984375 0 13.734375 5.921875q4.765625 5.90625 4.875 16.96875l0 10.109375zm-10.90625 -11.09375q0 -6.84375 -1.875 -9.953125q-1.859375 -3.109375 -5.828125 -3.109375q-3.84375 0 -5.6875 2.96875q-1.828125 2.953125 -1.9375 9.265625l0 13.359375q0 6.71875 1.828125 9.984375q1.828125 3.265625 5.875 3.265625q4.0 0 5.765625 -3.125q1.78125 -3.140625 1.859375 -9.59375l0 -13.0625z" fill-rule="nonzero"/><path fill="#ffff00" d="m97.426506 2.0l96.00001 0l0 96.0l-96.00001 0z" fill-rule="evenodd"/><path fill="#ffffff" d="m141.79538 55.005623q0 11.40625 -4.71875 17.453125q-4.71875 6.03125 -13.812508 6.03125q-8.984375 0 -13.75 -5.921875q-4.75 -5.921875 -4.859375 -16.984375l0 -10.125q0 -11.515625 4.765625 -17.484375q4.78125 -5.96875 13.765625 -5.96875q8.984383 0 13.734383 5.921875q4.765625 5.90625 4.875 16.96875l0 10.109375zm-10.90625 -11.09375q0 -6.84375 -1.875 -9.953125q-1.8593826 -3.109375 -5.8281326 -3.109375q-3.84375 0 -5.6875 2.96875q-1.828125 2.953125 -1.9375 9.265625l0 13.359375q0 6.71875 1.828125 9.984375q1.828125 3.265625 5.875 3.265625q4.0 0 5.7656326 -3.125q1.78125 -3.140625 1.859375 -9.59375l0 -13.0625zm44.787384 33.828125l-10.921875 0l0 -42.0625l-13.015625 4.046875l0 -8.875l22.765625 -8.15625l1.171875 0l0 55.046875z" fill-rule="nonzero"/></g></svg>